<?xml version="1.0"?>
<svg xmlns="http://www.w3.org/2000/svg" height="512px" viewBox="0 -66 335.628 335" width="512px"><g><path d="m328.628906 188.3125h-321.628906c-3.867188 0-7 3.136719-7 7 0 3.867188 3.132812 7 7 7h321.628906c3.863282 0 7-3.132812 7-7 0-3.863281-3.136718-7-7-7zm0 0" data-original="#000000" class="active-path" data-old_color="#000000" fill="#FFFFFF"/><path d="m328.628906 94.3125h-321.628906c-3.867188 0-7 3.136719-7 7 0 3.867188 3.132812 7 7 7h321.628906c3.863282 0 7-3.132812 7-7 0-3.863281-3.136718-7-7-7zm0 0" data-original="#000000" class="active-path" data-old_color="#000000" fill="#FFFFFF"/><path d="m328.628906.3125h-321.628906c-3.867188 0-7 3.136719-7 7 0 3.867188 3.132812 7 7 7h321.628906c3.863282 0 7-3.132812 7-7 0-3.863281-3.136718-7-7-7zm0 0" data-original="#000000" class="active-path" data-old_color="#000000" fill="#FFFFFF"/></g> </svg>
