<svg height="511pt" viewBox="0 -16 511.99991 511" width="511pt" xmlns="http://www.w3.org/2000/svg"><path d="m247.359375 178.722656c3.335937 3.167969 8.882813 2.527344 11.417969-1.296875l49.917968-75.335937c2.289063-3.453125 1.34375-8.109375-2.109374-10.398438-3.449219-2.285156-8.105469-1.339844-10.394532 2.109375l-44.984375 67.890625-24.996093-23.734375c-3.003907-2.851562-7.75-2.726562-10.605469.277344-2.851563 3.003906-2.726563 7.75.277343 10.601563-.003906 0 31.449219 29.863281 31.476563 29.886718zm0 0"/><path d="m252.476562 293.117188c1.433594.65625 3.019532 1.003906 4.597657 1.003906h.0625c1.605469-.007813 3.214843-.375 4.652343-1.0625 114.046876-54.238282 133.375-171.261719 136.578126-205.835938.734374-7.894531-3.710938-15.246094-11.058594-18.292968-22.703125-9.425782-38.136719-30.503907-40.277344-55.007813-.660156-7.542969-7.105469-13.421875-14.699219-13.421875h-.089843l-153.648438.902344c-7.746094.042968-14.039062 5.929687-14.632812 13.691406-1.890626 24.511719-17.097657 45.742188-39.6875 55.40625-7.273438 3.109375-11.609376 10.5-10.78125 18.390625 3.609374 34.535156 24.308593 151.328125 138.984374 204.226563zm-122.304687-208.828126c27.699219-11.84375 46.359375-37.847656 48.730469-67.890624l153.207031-.898438c2.722656 29.976562 21.648437 55.742188 49.449219 67.28125 1.242187.519531 1.996094 1.746094 1.875 3.058594-3.007813 32.402344-21.003906 141.65625-126.386719 192.855468-105.988281-49.953124-125.25-158.996093-128.640625-191.363281-.136719-1.308593.574219-2.53125 1.765625-3.042969zm0 0"/><path d="m148.898438 125.867188c.90625 3.335937 5.136718 6.390624 9.207031 5.269531 3.992187-1.101563 6.355469-5.207031 5.269531-9.203125-1.910156-7.039063-3.515625-14.175782-4.777344-21.246094 20.375-13.277344 35.496094-33.09375 42.914063-56.238281l108.3125-.636719c7.6875 23.050781 23.039062 42.695312 43.570312 55.730469-1.175781 7.089843-2.699219 14.25-4.53125 21.316406-1.039062 4.011719 1.371094 8.105469 5.378907 9.144531 4.015624 1.039063 8.105468-1.371094 9.144531-5.382812 2.148437-8.296875 3.898437-16.71875 5.195312-25.03125.726563-4.644532-1.398437-9.210938-5.40625-11.632813-19.125-11.550781-33.261719-29.671875-39.804687-51.023437-1.472656-4.800782-6-8.136719-11.023438-8.136719h-.070312l-113.398438.664063c-5.054687.03125-9.578125 3.433593-10.996094 8.269531-6.289062 21.425781-20.214843 39.710937-39.203124 51.488281-3.980469 2.464844-6.046876 7.054688-5.269532 11.695312 1.398438 8.292969 3.242188 16.6875 5.488282 24.953126zm0 0"/><path d="m348.226562 148.105469c-3.828124-1.585938-8.210937.242187-9.792968 4.070312-17.332032 42.007813-44.769532 73.945313-81.574219 94.964844-37.089844-20.613281-64.925781-52.28125-82.746094-94.15625-1.625-3.808594-6.03125-5.582031-9.839843-3.960937-3.8125 1.621093-5.585938 6.027343-3.964844 9.835937 19.449218 45.695313 50.089844 80.144531 91.070312 102.382813 1.726563.941406 3.617188 1.40625 5.503906 1.40625 1.933594 0 3.863282-.488282 5.621094-1.46875 40.671875-22.691407 70.882813-57.441407 89.796875-103.285157 1.582031-3.828125-.242187-8.210937-4.074219-9.789062zm0 0"/><path d="m48.121094 384.273438c-14.628906 0-26.535156 11.902343-26.535156 26.535156 0 14.632812 11.90625 26.535156 26.535156 26.535156 14.632812 0 26.539062-11.902344 26.539062-26.535156 0-14.632813-11.902344-26.535156-26.539062-26.535156zm0 38.070312c-6.359375 0-11.535156-5.171875-11.535156-11.535156 0-6.359375 5.175781-11.535156 11.535156-11.535156 6.363281 0 11.539062 5.175781 11.539062 11.535156 0 6.363281-5.175781 11.535156-11.539062 11.535156zm0 0"/><path d="m506.621094 310.847656c-9.613282-14.125-28.96875-17.867187-43.144532-8.34375l-98.046874 65.621094-20.929688-1.175781-.535156-5.359375c-2.085938-20.988282-18.128906-37.710938-39.011719-40.664063-.132813-.019531-.261719-.035156-.394531-.046875l-105.648438-9.257812c-3.574218-.558594-15.015625-3.84375-46.453125-21.875-16.339843-9.371094-34.75-14.660156-53.453125-15.378906v-19.621094c0-9.847656-8.007812-17.855469-17.855468-17.855469h-63.292969c-9.84375 0-17.855469 8.011719-17.855469 17.855469v193.246094c0 9.84375 8.011719 17.855468 17.855469 17.855468h63.292969c9.84375 0 17.855468-8.011718 17.855468-17.855468v-5.324219l92.351563 34.972656c.203125.078125 7.703125 2.882813 21.492187 1.582031.039063-.003906 153.449219-22.121094 153.449219-22.121094.039063-.003906.074219-.011718.113281-.019531 13.109375-2.089843 25.472656-7.632812 35.757813-16.019531.09375-.078125.183593-.15625.273437-.234375l99.105469-89.136719c11.679687-10.371094 13.863281-27.929687 5.074219-40.84375zm-15.070313 29.660156-99 89.042969c-8.195312 6.644531-18.03125 11.039063-28.453125 12.710938l-153.335937 22.105469c-.035157.003906-.085938.011718-.132813.019531-.023437.003906-.050781.007812-.074218.011719-4.585938.722656-9.363282.417968-14.203126-.90625l-97.347656-36.863282v-85.652344c0-4.144531-3.359375-7.5-7.5-7.5-4.144531 0-7.5 3.355469-7.5 7.5v107.015626c0 1.574218-1.28125 2.855468-2.855468 2.855468h-63.292969c-1.574219 0-2.855469-1.28125-2.855469-2.855468v-193.246094c0-1.574219 1.28125-2.855469 2.855469-2.855469h63.292969c1.574218 0 2.855468 1.28125 2.855468 2.855469v52.351562c0 4.144532 3.359375 7.5 7.5 7.5 4.144532 0 7.5-3.359375 7.5-7.5v-17.714844c16.089844.710938 31.917969 5.304688 45.988282 13.378907 37.917968 21.746093 48.507812 23.246093 51.988281 23.738281.132812.019531.261719.03125.394531.046875l105.660156 9.257813c13.929688 2.058593 24.609375 13.246093 26.003906 27.269531l.398438 3.996093-141.457031 8.734376c-.097657-.007813-.195313-.015626-.28125-.023438-4.585938-.414062-8.726563-2.582031-11.667969-6.105469-2.652344-3.183593-7.382812-3.613281-10.5625-.957031-3.183594 2.652344-3.613281 7.382812-.957031 10.5625 5.503906 6.601562 13.269531 10.550781 21.851562 11.441406 4.632813.484375 151.324219-9.132812 151.324219-9.132812l29.40625 1.652344c1.625.09375 3.238281-.351563 4.589844-1.257813l100.148437-67.023437c7.355469-4.941407 17.398438-3.003907 22.386719 4.324218 4.558594 6.703125 3.425781 15.8125-2.667969 21.222656zm0 0"/></svg>