<svg id="Layer_1" enable-background="new 0 0 512 512" height="512" viewBox="0 0 512 512" width="512" xmlns="http://www.w3.org/2000/svg"><g><g><path d="m180.42 386.272c-2.63 3.2-2.167 7.927 1.033 10.556 20.934 17.199 47.407 26.671 74.547 26.671 64.79 0 117.5-52.71 117.5-117.499 0-64.79-52.71-117.5-117.5-117.5s-117.5 52.71-117.5 117.5c0 23.544 6.94 46.263 20.071 65.7 2.318 3.432 6.979 4.334 10.413 2.017 3.433-2.319 4.335-6.981 2.017-10.413-11.449-16.949-17.501-36.764-17.501-57.304 0-8.622 1.07-16.999 3.084-25.005 1.604 5.449 5.176 12.962 7.614 16.081 1.035 1.325 2.419 2.306 5.174 4.26 2.272 1.612 9.189 6.518 10.335 8.704 1.366 2.607 2.592 5.765 3.777 8.819 1.081 2.784 2.102 5.413 3.217 7.584 4.09 7.97 12.733 10.327 17.897 11.736.946.258 2.196.599 2.813.83 5.851 5.019 10.761 6.378 14.363 6.378.922 0 1.759-.089 2.503-.229 2.141-.401 4.096-1.313 5.776-2.666-.419 1.734-.508 3.65-.602 5.683-.03.644-.064 1.372-.107 2.218-.318.446-.715.995-1.138 1.582-.647.898-1.467 2.035-2.509 3.491-2.124 2.973-1.931 4.925-1.288 11.393.157 1.582.358 3.612.604 6.209.118 1.968.336 2.363 3.358 7.839.786 1.425 1.829 3.315 3.207 5.822 2.008 3.664 5.824 4.835 8.891 5.776.176.054.372.114.575.178l2.393 15.036c-19.18-2.378-37.455-10.154-52.461-22.484-3.201-2.626-7.927-2.164-10.556 1.037zm156.462-143.168c-1.248 2-2.547 3.797-3.737 5.408-4.883 6.603-12.41 10.103-15.41 11.299-.237-.227-.462-.501-.57-.715-.642-6.612-1.949-11.4-3.258-15.557-.382-1.44-.262-6.759.244-11.396 1.156-4.815-1.498-9.319-3.867-13.056 10.209 6.398 19.216 14.545 26.598 24.017zm-106.534-36.354c-9.285 8.74-10.876 13.388-10.75 20.439.294 16.609 8.656 20.134 14.919 21.34l.858.172c4.414.897 13.593 2.763 20.506-7.128 5.048-7.228 7.819-10.086 9.11-11.191.862 2.596 1.055 7.579.648 10.286-.562.307-1.274.665-1.857.958-4.724 2.377-13.515 6.803-14.845 17.168-.18 1.411-.179 2.954-.176 4.742.002 1.639.006 4.918-.366 6.286-4.303 4.38-5.748 8.495-6.814 11.529-.28.799-.525 1.497-.783 2.081-.061.018-.119.036-.175.052-2.175.65-5.813 1.74-8.197 5.315-.586.882-.991 1.798-1.384 2.684-.074.168-.164.371-.259.58-.514-.01-1.107-.032-1.755-.064.167-2.228.244-4.738.12-7.337-.656-13.688-6.492-19.843-11.273-22.597-6.579-3.789-21.778-8.049-31.483-7.818-3.64.079-7.482 1.454-11.165 3.434l1.323-3.765c1.139-3.243.132-6.486-1.549-10.662 13.715-17.666 33.075-30.744 55.347-36.504zm-13.459 120.623c-2.279-2.011-5.226-2.814-8.344-3.665-3.135-.855-7.427-2.025-8.5-4.116-.759-1.478-1.642-3.752-2.577-6.161-1.273-3.281-2.717-7-4.475-10.353-2.601-4.965-8.553-9.445-14.943-13.977-.818-.581-1.797-1.274-2.335-1.684-1.176-1.76-2.949-5.639-4.046-8.552 5.945-5.45 12.268-9.561 15.049-9.622 7.078-.131 19.583 3.466 23.672 5.82 2.415 1.391 4.796 7.695 3.545 17.81-2.436 1.24-3.862 2.963-4.624 4.176-2.155 3.431-2.402 7.888-.663 11.917.658 1.527 1.801 3.27 3.529 5.906 4.712 7.185 7.43 12.198 8.11 14.954-.835-.444-1.982-1.204-3.398-2.453zm17.545 9.23c3.81-9.261-3.894-21.079-9.632-29.83 8.235.656 10.501.026 11.342-.208 5.025-1.409 7.231-5.906 8.438-8.606.121-.037.238-.072.343-.104 2.004-.599 5.357-1.603 7.587-4.769 1.694-2.41 2.507-4.722 3.224-6.762.844-2.401 1.453-4.136 3.612-6.238 4.431-4.307 4.422-11.394 4.416-16.568-.002-1-.003-2.37.055-2.82.269-2.1 2.287-3.447 6.71-5.672 3.342-1.682 6.798-3.422 8.545-7.111 2.521-5.314 2.812-19.188-1.967-26.733-2.565-4.05-6.418-6.279-10.855-6.279h-.017l-.268-.006c-7.334-.22-12.545 4.005-22.38 18.087-1.178 1.684-1.27 1.823-5.221 1.02-.341-.069-.677-.138-1.009-.202-.713-.137-1.604-.385-1.767-.63-.213-.32-.913-1.715-.993-6.248-.041-2.254-.044-2.438 1.223-4.122 2.48-3.297 8.263-8.531 18.165-16.447 1.03-.814 1.816-1.807 2.418-2.852 13.061.05 25.554 2.556 37.041 7.079-.379 2.032-.544 3.903-.493 5.598.114 3.793 2.243 7.136 4.303 10.368.626.983 1.602 2.514 2.047 3.435-.453 3.893-1.275 13.057.289 18.025 1.256 3.99 2.189 7.682 2.664 12.723.427 4.555 3.362 9.132 7.661 11.945 2.464 1.611 5.084 2.435 7.631 2.435 1.225 0 2.434-.19 3.599-.575 1.543-.507 15.326-5.291 24.065-17.108.181-.246.38-.515.594-.806 8.09 14.654 12.697 31.489 12.697 49.379 0 43.278-26.961 80.377-64.969 95.384.085-.458.166-.904.244-1.337 0-.002 0-.004.001-.006.326-.144.671-.296 1.021-.45 1.083-.476 2.415-1.061 4.085-1.81 2.752-1.22 3.383-2.276 6.885-8.138.864-1.446 1.985-3.323 3.475-5.798 1.476-2.424 1.438-3.403 1.145-11.02-.072-1.876-.166-4.31-.279-7.481-.174-4.802-2.56-6.487-8.325-10.558-1.305-.921-2.943-2.078-5.047-3.583-3.207-2.301-5.256-1.963-12.058-.837-.499.083-1.042.172-1.632.27-.74-1.324-1.729-2.972-3.077-4.968-4.448-6.589-18.791-9.582-30.266-10.936-6.698-1.757-11.912-.007-15.107 1.779-.056.029-.11.06-.163.091zm5.418 34.054c-.206-2.163-.377-3.891-.515-5.278-.105-1.056-.202-2.038-.273-2.809.502-.699.937-1.301 1.313-1.823 2.916-4.046 3.7-5.134 3.861-7.946.085-1.507.144-2.756.192-3.798.584.022 1.12.141 1.59.271.441.123.764.192.944.225.16.029.324.054.486.072 8.498.979 17.983 3.269 20.354 4.889 1.743 2.618 2.607 4.315 3.247 5.571.995 1.953 3.641 7.14 10.131 6.105 2.468-.397 4.408-.718 5.944-.973 1.012-.167 1.958-.324 2.725-.446 1.276.908 2.359 1.673 3.279 2.322.762.538 1.479 1.045 2.082 1.476.072 1.949.134 3.557.186 4.886.065 1.719.121 3.147.149 4.109-1.086 1.809-1.956 3.265-2.657 4.439-.674 1.127-1.268 2.121-1.703 2.839-.925.41-1.727.762-2.422 1.068-4.9 2.152-8.139 3.575-9.168 8.45-.192.918-.381 1.955-.582 3.064-.489 2.696-1.173 6.472-2.212 9.004-5.854 1.212-11.889 1.923-18.059 2.086l-3.368-21.162c-.981-6.209-6.944-8.039-10.507-9.132-.314-.097-.704-.216-1.065-.333-.941-1.712-1.696-3.079-2.3-4.173-.72-1.304-1.288-2.334-1.652-3.003z"/><path d="m93.02 308.796-11.035 4.628c-21.62-37.4-28.106-72.892-19.275-105.577 7.535-27.888 24.474-46.717 33.909-55.466 3.168-2.947 3.616-7.793 1.042-11.274-2.566-3.473-7.323-4.462-11.043-2.313-20.289 11.641-68.694 43.891-79.949 91.832-11.664 49.698 1.741 91.371 9.844 110.258l-10.407 4.365c-3.726 1.562-6.123 5.181-6.106 9.221.016 4.04 2.441 7.64 6.18 9.172l61.665 25.27c1.219.5 2.497.749 3.776.749 1.304 0 2.606-.26 3.846-.779 2.454-1.028 4.359-2.952 5.366-5.415l25.246-61.72c1.53-3.741.665-7.996-2.205-10.841-2.869-2.843-7.131-3.672-10.854-2.11zm1.065-156.993c-.006.003-.012.007-.018.01.005-.002.012-.006.018-.01zm-72.813 82.251c2.463-10.49 10.712-33.278 37.914-57.474-4.329 8.011-8.198 17.142-10.957 27.355-9.779 36.193-3.11 74.958 19.818 115.335l-37.707 15.814c-7.377-17.092-19.8-55.308-9.068-101.03zm47.588 139.063-45.734-18.741 64.459-27.034z"/><path d="m505.896 182.064c3.725-1.562 6.121-5.182 6.104-9.222s-2.442-7.64-6.18-9.171l-61.668-25.271c-2.462-1.008-5.169-.997-7.621.032-2.453 1.029-4.357 2.951-5.364 5.414l-24.29 59.381 3.367-97.227h15.756c4.143 0 7.5-3.358 7.5-7.5v-44c0-12.958-10.542-23.5-23.5-23.5h-10.5v-5.5c0-14.06-11.439-25.5-25.5-25.5h-182.077c-4.143 0-7.5 3.358-7.5 7.5s3.357 7.5 7.5 7.5h182.077c5.79 0 10.5 4.71 10.5 10.5v5.5h-257v-5.5c0-5.79 4.71-10.5 10.5-10.5h22.077c4.143 0 7.5-3.358 7.5-7.5s-3.357-7.5-7.5-7.5h-22.077c-14.061 0-25.5 11.439-25.5 25.5v5.5h-10.5c-12.958 0-23.5 10.542-23.5 23.5v44c0 4.142 3.357 7.5 7.5 7.5h15.756l13.809 398.76c.14 4.039 3.454 7.24 7.495 7.24h265.881c4.041 0 7.355-3.202 7.495-7.241l.878-25.369c.144-4.14-3.096-7.611-7.235-7.755-4.161-.143-7.612 3.097-7.755 7.236l-.629 18.129h-251.39l-13.54-391h73.562c5.3 17.343 21.528 30 40.673 30h50c19.145 0 35.374-12.657 40.673-30h73.562l-11.804 340.877c-.144 4.14 3.096 7.612 7.235 7.755.089.003.177.004.265.004 4.021 0 7.351-3.189 7.49-7.24l8.073-233.109c.439.763.984 1.477 1.632 2.119 1.906 1.889 4.427 2.889 6.996 2.889 1.298 0 2.608-.255 3.858-.779l11.032-4.627c21.623 37.398 28.11 72.889 19.279 105.575-7.533 27.882-24.475 46.72-33.907 55.472-3.156 2.935-3.614 7.768-1.064 11.244 1.647 2.246 4.215 3.464 6.843 3.464 1.436 0 2.891-.363 4.223-1.121 20.291-11.651 68.698-43.924 79.947-91.831 11.663-49.703-1.74-91.377-9.843-110.265zm-224.896-61.064h-50c-13.844 0-25.332-10.198-27.226-23.417-.01-.08-.021-.159-.033-.239-.159-1.184-.241-2.391-.241-3.617v-18.227c0-4.136 3.364-7.5 7.5-7.5s7.5 3.364 7.5 7.5v18.227c0 6.767 5.607 12.273 12.5 12.273h50c6.893 0 12.5-5.506 12.5-12.273v-18.227c0-4.136 3.364-7.5 7.5-7.5s7.5 3.364 7.5 7.5v18.227c0 1.226-.083 2.433-.241 3.617-.012.079-.023.159-.033.239-1.894 13.219-13.382 23.417-27.226 23.417zm42.5-30v-15.5c0-12.407-10.094-22.5-22.5-22.5s-22.5 10.093-22.5 22.5v15.5h-45v-15.5c0-12.407-10.094-22.5-22.5-22.5s-22.5 10.093-22.5 22.5v15.5h-95v-36.5c0-4.687 3.813-8.5 8.5-8.5h308c4.687 0 8.5 3.813 8.5 8.5v36.5zm119.64 63.196 45.733 18.741-64.458 27.034zm47.589 139.07c-2.462 10.485-10.716 33.271-37.915 57.469 4.33-8.013 8.199-17.146 10.958-27.357 9.78-36.194 3.109-74.959-19.82-115.334l37.71-15.816c7.376 17.094 19.798 55.31 9.067 101.038z"/></g></g></svg>